<?xml version="1.0" encoding="UTF-8" standalone="no"?>
<!-- Generator: Adobe Illustrator 12.0.1, SVG Export Plug-In . SVG Version: 6.00 Build 51448)  -->

<svg
   version="1.0"
   id="Layer_1"
   width="500"
   height="203"
   viewBox="0 0 499.99999 202.99999"
   overflow="visible"
   enable-background="new 0 0 436.505 152.503"
   xml:space="preserve"
   sodipodi:docname="logo.svg"
   inkscape:version="1.4 (e7c3feb1, 2024-10-09)"
   xmlns:inkscape="http://www.inkscape.org/namespaces/inkscape"
   xmlns:sodipodi="http://sodipodi.sourceforge.net/DTD/sodipodi-0.dtd"
   xmlns:xlink="http://www.w3.org/1999/xlink"
   xmlns="http://www.w3.org/2000/svg"
   xmlns:svg="http://www.w3.org/2000/svg"><defs
   id="defs7"><linearGradient
   id="linearGradient5"
   inkscape:collect="always"><stop
     style="stop-color:#2ad594;stop-opacity:1;"
     offset="0"
     id="stop5" /><stop
     style="stop-color:#7fe6bf;stop-opacity:1;"
     offset="1"
     id="stop6" /></linearGradient><linearGradient
   id="linearGradient33"
   inkscape:collect="always"><stop
     style="stop-color:#686868;stop-opacity:1;"
     offset="0"
     id="stop33" /><stop
     style="stop-color:#515151;stop-opacity:1;"
     offset="1"
     id="stop34" /></linearGradient><linearGradient
   id="linearGradient23"
   inkscape:collect="always"><stop
     style="stop-color:#556fff;stop-opacity:1;"
     offset="0"
     id="stop23" /><stop
     style="stop-color:#55ffdd;stop-opacity:1;"
     offset="1"
     id="stop24" /></linearGradient>

















	<linearGradient
   inkscape:collect="always"
   xlink:href="#linearGradient23"
   id="linearGradient24-2"
   x1="-1.61845"
   y1="76.251953"
   x2="438.9454"
   y2="76.251953"
   gradientUnits="userSpaceOnUse"
   gradientTransform="translate(0.44608772)" /><radialGradient
   inkscape:collect="always"
   xlink:href="#linearGradient33"
   id="radialGradient34-3"
   cx="420.73083"
   cy="-35.568977"
   fx="420.73083"
   fy="-35.568977"
   r="250.93925"
   gradientTransform="matrix(0.99999998,0,0,0.34876765,0.44608775,56.344295)"
   gradientUnits="userSpaceOnUse" /><linearGradient
   inkscape:collect="always"
   xlink:href="#linearGradient5"
   id="linearGradient6"
   x1="84.200912"
   y1="115.12097"
   x2="419.09448"
   y2="-1.0413413"
   gradientUnits="userSpaceOnUse" /></defs><sodipodi:namedview
   id="namedview7"
   pagecolor="#ffffff"
   bordercolor="#000000"
   borderopacity="0.25"
   inkscape:showpageshadow="2"
   inkscape:pageopacity="0.0"
   inkscape:pagecheckerboard="0"
   inkscape:deskcolor="#d1d1d1"
   inkscape:zoom="1.2138188"
   inkscape:cx="347.25117"
   inkscape:cy="122.75308"
   inkscape:window-width="1728"
   inkscape:window-height="1051"
   inkscape:window-x="0"
   inkscape:window-y="38"
   inkscape:window-maximized="0"
   inkscape:current-layer="Layer_1" />

<path
   id="path6"
   d="m 387.12884,27.553597 c 18.20484,0 29.31794,11.457287 29.31794,29.999858 0,19.016495 -11.58441,30.945426 -30.02718,30.945426 -18.20637,0 -29.43692,-11.457294 -29.43692,-29.881758 6.7e-4,-19.135356 11.5867,-31.063526 30.14616,-31.063526 z m -0.35615,46.298513 c 6.97582,0 11.11387,-5.787697 11.11387,-15.827018 0,-9.920455 -4.01985,-15.826251 -10.99337,-15.826251 -7.21223,0 -11.35104,5.788457 -11.35104,15.826251 6.6e-4,10.040082 4.13881,15.827018 11.23054,15.827018 z m -91.86155,23.031911 c 6.38477,3.306819 12.76802,4.841369 19.50589,4.841369 11.93904,0 17.02275,-4.841369 17.02275,-16.416749 0,-0.1181 0,-0.2362 0,-0.35431 -3.54625,1.77075 -7.09325,2.48011 -11.82082,2.48011 -15.95964,0 -26.12784,-10.511714 -26.12784,-27.164674 0,-20.670661 15.01473,-32.361866 41.61236,-32.361866 7.80326,0 15.01474,0.825942 23.76291,2.597453 l -6.23377,13.119839 c -4.8473,-0.944808 -0.38818,-0.126479 -4.05112,-0.480784 v 1.890371 l 0.23566,7.675786 0.11744,9.921976 c 0.11822,2.479353 0.11822,4.960227 0.23719,7.440348 0,2.243908 0,3.307576 0,4.960988 0,15.590813 -1.3003,22.913053 -5.20117,28.936182 -5.67476,8.85908 -15.48681,13.2288 -29.43615,13.2288 -7.09326,0 -13.23932,-1.06291 -19.62409,-3.54378 V 96.884021 Z m 36.17478,-54.330876 c -0.23642,0 -0.47207,0 -0.59028,0 h -1.30106 c -3.54548,-0.118099 -7.68277,0.825942 -10.52129,2.597453 -4.37294,2.480874 -6.62043,6.969465 -6.62043,13.346898 0,9.095273 4.49344,14.291706 12.5316,14.291706 2.48238,0 4.49268,-0.473165 6.85609,-1.181007 v -1.299867 -4.959467 c 0,-2.125815 -0.11745,-4.489351 -0.11745,-6.968704 l -0.11744,-8.385149 -0.11898,-6.023896 V 42.553145 Z M 234.16353,31.92332 c 10.75695,-2.834412 19.62333,-4.132757 28.60792,-4.132757 9.33922,0 16.07785,2.125048 20.09846,6.259333 3.78266,3.89656 4.96399,8.148184 4.96399,17.244225 v 35.66793 H 269.6283 V 52.002724 c 0,-6.967944 -2.36417,-9.567678 -8.86563,-9.567678 -2.48237,0 -4.72832,0.236199 -8.39431,1.299106 v 43.227899 h -18.20483 z m -53.19831,1.299107 c 8.0397,-3.77846 15.72324,-5.431864 24.11679,-5.431864 9.33921,0 15.48604,2.479346 18.20559,7.322241 1.53595,2.716313 2.00878,6.259334 2.00878,13.819302 v 36.967035 c -8.1579,1.18101 -18.44202,2.00847 -26.00734,2.00847 -15.24964,0 -22.10724,-5.316814 -22.10724,-17.126885 0,-12.756395 9.1028,-18.661431 31.44645,-20.551801 v -4.015419 c 0,-3.306823 -1.65491,-4.48707 -6.2658,-4.48707 -6.73787,0 -14.30396,1.889617 -21.39799,5.551499 V 33.222427 Z m 28.49049,28.93695 c -12.05877,1.181007 -15.95964,3.071385 -15.95964,7.795407 0,3.543021 2.24672,5.196433 7.21147,5.196433 2.71955,0 5.20116,-0.235439 8.74817,-0.825942 z M 169.96881,29.088908 V 71.25313 c 0,14.527911 -1.06388,21.495851 -4.2555,27.519741 -2.95596,5.788459 -6.85761,9.448819 -14.89577,13.464999 l -16.90531,-8.03161 c 8.03893,-3.77922 11.9398,-7.085269 14.42218,-12.165889 2.60134,-5.19643 3.42956,-11.220324 3.42956,-27.046575 V 29.088908 Z M 151.76397,1.09676 h 18.20484 V 19.75819 H 151.76397 Z M 122.80142,1 h 18.2056 v 84.191301 c -9.33922,1.77151 -16.19606,2.48011 -23.64318,2.48011 -22.225444,-6.7e-4 -33.810617,-10.03856 -33.810617,-29.291254 0,-18.543331 12.295186,-30.589594 31.327477,-30.589594 2.95521,0 5.20117,0.235438 7.92072,0.944041 z m 0,42.379091 c -2.12775,-0.707842 -3.90087,-0.944041 -6.14683,-0.944041 -9.22101,0 -14.54114,5.669591 -14.54114,15.590046 0,9.685783 5.08372,15.000309 14.42293,15.000309 2.00878,0 3.66446,-0.118099 6.26504,-0.471637 z"
   style="font-variation-settings:normal;mix-blend-mode:normal;vector-effect:none;fill:url(#linearGradient6);fill-opacity:1;stroke:#515151;stroke-width:2;stroke-linecap:round;stroke-linejoin:round;stroke-miterlimit:4;stroke-dasharray:none;stroke-dashoffset:0;stroke-opacity:1;-inkscape-stroke:none;paint-order:fill markers stroke;stop-color:#000000" /><path
   style="font-weight:bold;font-size:221.271px;line-height:0.75;font-family:'System Font';-inkscape-font-specification:'System Font, Bold @GRAD=400,opsz=96,wght=700,wdth=100';font-variation-settings:'GRAD' 400, 'opsz' 96, 'wdth' 100, 'wght' 700;text-align:center;text-anchor:middle;fill:#4d93da;fill-opacity:1;stroke:#515151;stroke-width:2;stroke-linecap:round;stroke-linejoin:round;paint-order:fill markers stroke"
   d="m 342.15214,200.31824 24.04902,-38.83948 -23.90588,-39.13045 h 23.548 l 13.81388,26.32941 h 0.42944 l 13.59915,-26.32941 h 22.76068 l -23.97745,38.54858 23.76272,39.42136 h -22.6891 l -14.60119,-27.05673 h -0.42945 l -14.38646,27.05673 z"
   id="path5" /><path
   style="font-weight:bold;font-size:221.271px;line-height:0.75;font-family:'System Font';-inkscape-font-specification:'System Font, Bold @GRAD=400,opsz=96,wght=700,wdth=100';font-variation-settings:'GRAD' 400, 'opsz' 96, 'wdth' 100, 'wght' 700;text-align:center;text-anchor:middle;fill:#ffffff;stroke:#515151;stroke-width:2;stroke-linecap:round;stroke-linejoin:round;paint-order:fill markers stroke"
   d="m 220.83344,200.31824 v -77.96993 h 20.89974 v 13.09197 h 0.42945 q 2.36196,-6.69145 8.01634,-10.69177 5.72595,-4.00032 13.45599,-4.00032 5.36809,0 9.66256,1.89105 4.29447,1.89107 7.22902,5.455 3.00613,3.56392 4.22289,8.72798 h 0.42945 q 1.71779,-4.94586 5.15336,-8.50977 3.50715,-3.63668 8.23106,-5.60046 4.79549,-1.9638 10.44987,-1.9638 7.51532,0 13.1697,3.27299 5.65439,3.27299 8.80366,9.16437 3.14928,5.89138 3.14928,13.8193 v 53.31339 h -20.89974 v -48.00387 q 0,-4.50946 -1.50307,-7.63698 -1.43149,-3.12752 -4.22289,-4.72765 -2.71983,-1.60014 -6.79957,-1.60014 -3.9366,0 -6.94272,1.81835 -2.93457,1.81831 -4.58077,5.0913 -1.64621,3.273 -1.64621,7.63698 v 47.42201 h -20.11243 v -48.65846 q 0,-4.21853 -1.50306,-7.20058 -1.50307,-2.98206 -4.29447,-4.50946 -2.71982,-1.60014 -6.58485,-1.60014 -3.9366,0 -6.94272,1.89107 -3.00613,1.89107 -4.72392,5.23678 -1.64621,3.34574 -1.64621,7.78246 v 47.05834 z"
   id="path4" /><path
   style="font-weight:bold;font-size:221.271px;line-height:0.75;font-family:'System Font';-inkscape-font-specification:'System Font, Bold @GRAD=400,opsz=96,wght=700,wdth=100';font-variation-settings:'GRAD' 400, 'opsz' 96, 'wdth' 100, 'wght' 700;text-align:center;text-anchor:middle;fill:#ffffff;stroke:#515151;stroke-width:2;stroke-linecap:round;stroke-linejoin:round;paint-order:fill markers stroke"
   d="m 199.21795,201.91838 q -12.74026,0 -18.89565,-5.45499 -6.1554,-5.45499 -6.1554,-17.96509 v -40.1487 h -10.6646 v -16.00129 h 10.6646 v -19.05607 h 21.11446 v 19.05607 h 14.02859 v 16.0013 h -14.02859 v 37.82124 q 0,5.45497 2.36195,7.63698 2.43354,2.10926 7.15745,2.10926 1.43149,0 2.5051,-0.0727 1.07363,-0.14547 2.00409,-0.29093 v 15.56489 q -1.71778,0.29093 -4.29447,0.50912 -2.5051,0.29093 -5.79753,0.29093 z"
   id="path3" /><path
   style="font-weight:bold;font-size:221.271px;line-height:0.75;font-family:'System Font';-inkscape-font-specification:'System Font, Bold @GRAD=400,opsz=96,wght=700,wdth=100';font-variation-settings:'GRAD' 400, 'opsz' 96, 'wdth' 100, 'wght' 700;text-align:center;text-anchor:middle;fill:#ffffff;stroke:#515151;stroke-width:2;stroke-linecap:round;stroke-linejoin:round;paint-order:fill markers stroke"
   d="M 83.55363,200.31824 V 95.364321 h 20.89974 v 40.439619 h 0.42945 q 3.00613,-7.27331 8.94681,-11.12817 6.01225,-3.92758 14.60119,-3.92758 8.37421,0 14.38646,3.78212 6.01225,3.70939 9.2331,10.54631 3.29244,6.83691 3.29244,16.29222 v 48.9494 h -20.89975 v -44.58542 q 0,-8.1461 -3.86502,-12.72828 -3.79345,-4.65494 -10.95089,-4.65494 -4.58077,0 -8.01634,2.25473 -3.364,2.182 -5.29651,6.10958 -1.86094,3.85487 -1.86094,8.94619 v 44.65814 z"
   id="text1" /><path
   style="font-weight:bold;font-size:221.271px;line-height:0.75;font-family:'System Font';-inkscape-font-specification:'System Font, Bold @GRAD=400,opsz=96,wght=700,wdth=100';font-variation-settings:'GRAD' 400, 'opsz' 96, 'wdth' 100, 'wght' 700;text-align:center;text-anchor:middle;fill:#ffffff;stroke:#515151;stroke-width:2;stroke-linecap:round;stroke-linejoin:round;paint-order:fill markers stroke"
   d="m 431.13098,63.965093 v 19.056851 l 49.18475,18.628146 -49.18475,18.6842 v 18.61902 L 499,111.96881 V 90.949591 Z"
   id="path2"
   sodipodi:nodetypes="cccccccc" /><path
   style="font-weight:bold;font-size:221.271px;line-height:0.75;font-family:'System Font';-inkscape-font-specification:'System Font, Bold @GRAD=400,opsz=96,wght=700,wdth=100';font-variation-settings:'GRAD' 400, 'opsz' 96, 'wdth' 100, 'wght' 700;text-align:center;text-anchor:middle;fill:#ffffff;fill-opacity:1;stroke:#515151;stroke-width:2;stroke-linecap:round;stroke-linejoin:round;paint-order:fill markers stroke"
   d="M 68.869021,63.965089 1,90.949592 V 111.9688 l 67.869021,26.98451 V 119.89776 L 19.68558,101.21357 68.869021,82.585425 Z"
   id="text2"
   sodipodi:nodetypes="cccccccc" /></svg>
